HIERARCHY
ROOT SpineBase
{
  OFFSET 0.000000 0.000000 0.000000
  CHANNELS 6 Xposition Yposition Zposition Zrotation Xrotation Yrotation
  JOINT SpineMid
  {
    OFFSET 0.000000 28.832859 -0.000000
    CHANNELS 3 Zrotation Xrotation Yrotation
    JOINT SpineShoulder
    {
      OFFSET -0.083866 21.442866 -0.682137
      CHANNELS 3 Zrotation Xrotation Yrotation
      JOINT Neck
      {
        OFFSET -0.045844 7.095730 -0.524674
        CHANNELS 3 Zrotation Xrotation Yrotation
        JOINT Head
        {
          OFFSET -2.106632 12.697657 -0.123897
          CHANNELS 3 Zrotation Xrotation Yrotation
          End Site
          {
            OFFSET 0 0 0
          }
        }
      }
      JOINT ShoulderLeft
      {
        OFFSET -15.857318 -2.274647 4.442610
        CHANNELS 3 Zrotation Xrotation Yrotation
        JOINT ElbowLeft
        {
          OFFSET -3.281796 -25.134899 1.967578
          CHANNELS 3 Zrotation Xrotation Yrotation
          JOINT WristLeft
          {
            OFFSET -3.120158 -22.779607 -4.192234
            CHANNELS 3 Zrotation Xrotation Yrotation
            JOINT HandLeft
            {
              OFFSET 0.968998 -6.060690 -1.914493
              CHANNELS 3 Zrotation Xrotation Yrotation
              JOINT HandTipLeft
              {
                OFFSET -0.602055 -6.296125 -1.171221
                CHANNELS 3 Zrotation Xrotation Yrotation
                End Site
                {
                  OFFSET 0 0 0
                }
              }
              JOINT ThumbLeft
              {
                OFFSET -2.663373 -1.000053 -1.541333
                CHANNELS 3 Zrotation Xrotation Yrotation
                End Site
                {
                  OFFSET 0 0 0
                }
              }
            }
          }
        }
      }
      JOINT ShoulderRight
      {
        OFFSET 15.469116 -2.219885 -5.152622
        CHANNELS 3 Zrotation Xrotation Yrotation
        JOINT ElbowRight
        {
          OFFSET 5.950399 -24.838124 -2.688158
          CHANNELS 3 Zrotation Xrotation Yrotation
          JOINT WristRight
          {
            OFFSET 0.235814 -21.477465 -4.684259
            CHANNELS 3 Zrotation Xrotation Yrotation
            JOINT HandRight
            {
              OFFSET -2.091129 -7.398666 -1.266698
              CHANNELS 3 Zrotation Xrotation Yrotation
              JOINT HandTipRight
              {
                OFFSET -0.239682 -6.189477 -1.516848
                CHANNELS 3 Zrotation Xrotation Yrotation
                End Site
                {
                  OFFSET 0 0 0
                }
              }
              JOINT ThumbRight
              {
                OFFSET 2.298038 -1.661704 -2.299554
                CHANNELS 3 Zrotation Xrotation Yrotation
                End Site
                {
                  OFFSET 0 0 0
                }
              }
            }
          }
        }
      }
    }
  }
  JOINT HipLeft
  {
    OFFSET -5.971712 0.483787 -1.786501
    CHANNELS 3 Zrotation Xrotation Yrotation
    JOINT KneeLeft
    {
      OFFSET -6.979954 -30.409971 4.311134
      CHANNELS 3 Zrotation Xrotation Yrotation
      JOINT AnkleLeft
      {
        OFFSET -0.838321 -36.892450 7.073135
        CHANNELS 3 Zrotation Xrotation Yrotation
        JOINT FootLeft
        {
          OFFSET -2.888247 -6.218871 -8.117137
          CHANNELS 3 Zrotation Xrotation Yrotation
          End Site
          {
            OFFSET 0 0 0
          }
        }
      }
    }
  }
  JOINT HipRight
  {
    OFFSET 5.419151 0.716696 -4.761544
    CHANNELS 3 Zrotation Xrotation Yrotation
    JOINT KneeRight
    {
      OFFSET 6.178548 -25.914199 1.387430
      CHANNELS 3 Zrotation Xrotation Yrotation
      JOINT AnkleRight
      {
        OFFSET 1.501880 -38.494928 10.232920
        CHANNELS 3 Zrotation Xrotation Yrotation
        JOINT FootRight
        {
          OFFSET -1.309587 -6.675906 -8.650337
          CHANNELS 3 Zrotation Xrotation Yrotation
          End Site
          {
            OFFSET 0 0 0
          }
        }
      }
    }
  }
}
MOTION
Frames: 5
Frame Time: 0.033333
28.021624 75.990376 371.989922 -0.000000 -0.000000 14.637419 0.000000 0.000000 -14.637419 -0.000000 0.000000 0.000000 -0.000000 0.000000 0.000000 0.000000 0.000000 0.000000 -0.000000 0.000000 0.000000 -0.000000 0.000000 0.000000 -0.000000 0.000000 0.000000 -0.000000 0.000000 0.000000 0.000000 0.000000 0.000000 0.000000 0.000000 0.000000 -0.000000 0.000000 0.000000 -0.000000 0.000000 0.000000 -0.000000 0.000000 0.000000 -0.000000 0.000000 0.000000 0.000000 0.000000 0.000000 0.000000 0.000000 0.000000 0.000000 0.000000 -14.637419 -0.000000 0.000000 0.000000 -0.000000 0.000000 0.000000 0.000000 0.000000 0.000000 0.000000 0.000000 -14.637419 -0.000000 0.000000 0.000000 -0.000000 0.000000 0.000000 0.000000 0.000000 0.000000
28.014866 76.001355 371.987756 -0.028913 -0.024020 14.674524 0.034055 0.015912 -14.674535 -0.000000 0.000000 0.000000 -0.000000 0.000000 0.000000 0.000000 0.000000 0.000000 -0.000000 0.000000 0.000000 -0.000000 0.000000 0.000000 -0.697188 -1.676256 -0.058313 0.695780 1.676841 0.037932 0.000000 0.000000 0.000000 0.000000 0.000000 0.000000 -0.000000 0.000000 0.000000 -0.000000 0.000000 0.000000 -0.000000 0.000000 0.000000 -1.038001 -0.140965 0.258557 0.000000 0.000000 0.000000 0.000000 0.000000 0.000000 0.034055 0.015912 -14.674535 -0.000000 0.000000 0.000000 -0.503177 5.548061 -1.781131 0.000000 0.000000 0.000000 0.034055 0.015912 -14.674535 -0.000000 0.000000 0.000000 -2.444238 -8.361687 5.089870 0.000000 0.000000 0.000000
28.009436 76.008970 371.984864 -0.050462 -0.047852 14.711493 0.060960 0.033468 -14.711532 -0.000000 0.000000 0.000000 -0.000000 0.000000 0.000000 0.000000 0.000000 0.000000 -0.000000 0.000000 0.000000 -0.000000 0.000000 0.000000 -1.262944 -3.039084 -0.121786 1.415511 4.004072 -0.076041 0.000000 0.000000 0.000000 0.000000 0.000000 0.000000 -0.000000 0.000000 0.000000 -0.000000 0.000000 0.000000 -0.000000 0.000000 0.000000 -1.920122 -0.284569 0.476835 0.000000 0.000000 0.000000 0.000000 0.000000 0.000000 0.060960 0.033468 -14.711532 -0.000000 0.000000 0.000000 -0.709644 9.409621 -3.057295 0.000000 0.000000 0.000000 0.060960 0.033468 -14.711532 -0.000000 0.000000 0.000000 -4.261422 -15.402620 9.577219 0.000000 0.000000 0.000000
28.005335 76.013219 371.981248 -0.064624 -0.071484 14.748304 0.080693 0.052677 -14.748381 -0.000000 0.000000 0.000000 -0.000000 0.000000 0.000000 0.000000 0.000000 0.000000 -0.000000 0.000000 0.000000 -0.000000 0.000000 0.000000 -1.696653 -4.089017 -0.181093 1.969094 5.265968 -0.126933 0.000000 0.000000 0.000000 0.000000 0.000000 0.000000 -0.000000 0.000000 0.000000 -0.000000 0.000000 0.000000 -0.000000 0.000000 0.000000 -2.649502 -0.429330 0.656131 0.000000 0.000000 0.000000 0.000000 0.000000 0.000000 -0.945480 0.118991 -14.844464 1.008913 0.198805 0.095870 -0.740314 11.897193 -3.950961 0.000000 0.000000 0.000000 -0.602915 0.649692 -14.691455 0.812686 -0.404076 -0.049871 -5.592962 -19.806202 12.965298 0.000000 0.000000 0.000000
28.002563 76.014103 371.976907 -0.071382 -0.094909 14.784949 0.093239 0.073550 -14.785068 -0.000000 0.000000 0.000000 0.755473 -0.402530 -0.056694 0.000000 0.000000 0.000000 -0.000000 0.000000 0.000000 -0.000000 0.000000 0.000000 -1.997242 -4.826433 -0.229018 2.419397 6.043089 -0.176200 0.000000 0.000000 0.000000 0.000000 0.000000 0.000000 -0.000000 0.000000 0.000000 -0.000000 0.000000 0.000000 -0.000000 0.000000 0.000000 -3.228863 -0.574160 0.797651 0.000000 0.000000 0.000000 0.000000 0.000000 0.000000 -1.074901 0.155869 -14.895393 1.150045 0.220734 0.110449 -0.658726 13.229398 -4.534263 0.000000 0.000000 0.000000 -0.674173 0.822114 -14.702969 1.723279 -0.641935 0.142105 -7.569862 -20.733940 14.726071 0.000000 0.000000 0.000000
